<?xml version="1.0" encoding="utf-8"?><svg viewBox="0 0 46 46" xmlns="http://www.w3.org/2000/svg" xmlns:xlink="http://www.w3.org/1999/xlink"><style>:root>svg{display:none}:root>svg:target{display:block}</style><svg fill="none" viewBox="0 0 12 12" id="arrowupright" xmlns="http://www.w3.org/2000/svg"><path d="M3.5 8.5l5-5M3.5 3.5h5v5" stroke="#02B033" stroke-linecap="round" stroke-linejoin="round"/></svg><svg fill="none" viewBox="0 0 24 24" id="bell" xmlns="http://www.w3.org/2000/svg"><path d="M18 8A6 6 0 106 8c0 7-3 9-3 9h18s-3-2-3-9zM13.73 21a2 2 0 01-3.46 0" stroke="#181818" stroke-width="2" stroke-linecap="round" stroke-linejoin="round"/></svg><svg fill="none" viewBox="0 0 24 24" id="briefcase" xmlns="http://www.w3.org/2000/svg"><path d="M20 7H4a2 2 0 00-2 2v10a2 2 0 002 2h16a2 2 0 002-2V9a2 2 0 00-2-2z" stroke="#181818" stroke-width="2" stroke-linecap="round" stroke-linejoin="round"/><path d="M16 21V5a2 2 0 00-2-2h-4a2 2 0 00-2 2v16" stroke="#181818" stroke-width="2" stroke-linecap="round" stroke-linejoin="round"/></svg><svg fill="none" viewBox="0 0 46 46" id="logo" xmlns="http://www.w3.org/2000/svg"><path fill-rule="evenodd" clip-rule="evenodd" d="M2.526 2.526C0 5.052 0 9.118 0 17.25v11.5c0 8.132 0 12.198 2.526 14.724S9.118 46 17.25 46h11.5c8.132 0 12.198 0 14.724-2.526S46 36.882 46 28.75v-11.5c0-8.132 0-12.198-2.526-14.724S36.882 0 28.75 0h-11.5C9.118 0 5.052 0 2.526 2.526zm8.955 11.884c-1.894 0-3.431-1.553-3.431-3.467 0-1.915 1.537-3.468 3.431-3.468 1.894 0 3.431 1.553 3.431 3.468 0 1.914-1.535 3.467-3.43 3.467zm-2.94 24.115V16.902h5.881v21.623H8.54zm23.527 0h5.882V25.239c0-10.326-10.986-9.95-13.725-4.867v-3.47h-5.882v21.623h5.882V27.509c0-6.119 7.843-6.62 7.843 0v11.016z" fill="url(#dpaint0_linear_3001_39)"/><defs><linearGradient id="dpaint0_linear_3001_39" x1="23" y1="0" x2="23" y2="46" gradientUnits="userSpaceOnUse"><stop stop-color="#0077B5"/><stop offset="1" stop-color="#0E6795"/></linearGradient></defs></svg><svg fill="none" viewBox="0 0 24 24" id="messagesquare" xmlns="http://www.w3.org/2000/svg"><path d="M21 15a2 2 0 01-2 2H7l-4 4V5a2 2 0 012-2h14a2 2 0 012 2v10z" stroke="#181818" stroke-width="2" stroke-linecap="round" stroke-linejoin="round"/></svg><svg fill="none" viewBox="0 0 24 24" id="rss" xmlns="http://www.w3.org/2000/svg"><path d="M4 11a9 9 0 019 9M4 4a16 16 0 0116 16M5 20a1 1 0 100-2 1 1 0 000 2z" stroke="#0275B1" stroke-width="2" stroke-linecap="round" stroke-linejoin="round"/></svg><svg fill="none" viewBox="0 0 24 24" id="search" xmlns="http://www.w3.org/2000/svg"><path d="M11 19a8 8 0 100-16 8 8 0 000 16zM21 21l-4.35-4.35" stroke="#0275B1" stroke-width="2" stroke-linecap="round" stroke-linejoin="round"/></svg><svg fill="none" viewBox="0 0 24 24" id="users" xmlns="http://www.w3.org/2000/svg"><path d="M17 21v-2a4 4 0 00-4-4H5a4 4 0 00-4 4v2M9 11a4 4 0 100-8 4 4 0 000 8zM23 21v-2a4 4 0 00-3-3.87M16 3.13a4 4 0 010 7.75" stroke="#181818" stroke-width="2" stroke-linecap="round" stroke-linejoin="round"/></svg></svg>